<?xml version="1.0" standalone="no"?>
<!DOCTYPE svg PUBLIC "-//W3C//DTD SVG 20010904//EN"
 "http://www.w3.org/TR/2001/REC-SVG-20010904/DTD/svg10.dtd">
<svg version="1.0" xmlns="http://www.w3.org/2000/svg"
 width="2500.000000pt" height="2500.000000pt" viewBox="0 0 2500.000000 2500.000000"
 preserveAspectRatio="xMidYMid meet">
<metadata>
Created by potrace 1.11, written by Peter Selinger 2001-2013
</metadata>
<g transform="translate(0.000000,2500.000000) scale(0.100000,-0.100000)"
fill="#000000" stroke="none">
<path d="M12305 24983 c-2688 -51 -5294 -965 -7426 -2605 -797 -613 -1541
-1346 -2171 -2138 -741 -933 -1357 -1994 -1806 -3112 -426 -1058 -701 -2161
-827 -3313 -79 -727 -90 -1570 -30 -2325 154 -1918 759 -3793 1760 -5450 797
-1318 1851 -2497 3074 -3438 459 -353 980 -698 1476 -979 1589 -898 3369
-1443 5185 -1587 357 -29 561 -36 1005 -36 548 0 905 18 1380 71 2420 268
4693 1223 6584 2767 571 467 1181 1069 1657 1637 846 1010 1530 2152 2022
3377 385 956 647 1951 787 2987 l25 183 0 1468 0 1468 -25 183 c-231 1708
-803 3331 -1690 4799 -797 1318 -1851 2497 -3074 3438 -459 353 -980 698
-1476 979 -1704 964 -3625 1519 -5575 1612 -235 12 -650 18 -855 14z"/>
</g>
</svg>
