<?xml version="1.0" encoding="UTF-8" standalone="no"?>
<!-- Created with Inkscape (http://www.inkscape.org/) -->

<svg
   xmlns:dc="http://purl.org/dc/elements/1.1/"
   xmlns:cc="http://creativecommons.org/ns#"
   xmlns:rdf="http://www.w3.org/1999/02/22-rdf-syntax-ns#"
   xmlns:svg="http://www.w3.org/2000/svg"
   xmlns="http://www.w3.org/2000/svg"
   xmlns:xlink="http://www.w3.org/1999/xlink"
   xmlns:sodipodi="http://sodipodi.sourceforge.net/DTD/sodipodi-0.dtd"
   xmlns:inkscape="http://www.inkscape.org/namespaces/inkscape"
   width="744"
   height="210"
   viewBox="0 0 744 210"
   id="svg196099"
   version="1.1"
   inkscape:version="0.91 r13725"
   sodipodi:docname="broadcast.svg">
  <defs
     id="defs196101">
    <symbol
       viewBox="0 0 64 64"
       id="emoji-1f371">
      <title
         id="title224175">1f371</title>
      <path
         fill="#3e4347"
         d="M62,55.628C62,56.385,61.385,57,60.625,57H3.377C2.617,57,2,56.385,2,55.628V8.373C2,7.616,2.617,7,3.377,7  h57.248C61.385,7,62,7.616,62,8.373V55.628z"
         id="1f371-0" />
      <use
         xlink:href="#1f371-0"
         id="use224178" />
      <g
         fill="#ff5760"
         id="g224180">
        <path
           d="m36.13 36.809c0-1.511-1.238-2.747-2.752-2.747h-24.496c-1.513 0-2.752 1.236-2.752 2.747v13.323c0 1.511 1.239 2.749 2.752 2.749h24.496c1.514 0 2.752-1.238 2.752-2.749v-13.323"
           id="path224182" />
        <path
           d="m23.745 13.869c0-1.512-1.241-2.748-2.754-2.748h-12.11c-1.513 0-2.752 1.236-2.752 2.748v13.323c0 1.511 1.239 2.747 2.752 2.747h12.11c1.513 0 2.754-1.236 2.754-2.747v-13.323"
           id="path224184" />
        <path
           d="m30.625 11.12c-1.516 0-2.754 1.236-2.754 2.748v13.323c0 1.511 1.238 2.747 2.754 2.747h24.494c1.514 0 2.752-1.236 2.752-2.747v-13.323c0-1.512-1.238-2.748-2.752-2.748h-24.494"
           id="path224186" />
      </g>
      <path
         fill="#fff"
         d="m33.514 41.41c0-1.139-.923-2.062-2.063-2.062 1.141 0 2.063-.921 2.063-2.06 0-1.138-.923-2.06-2.063-2.06-1.142 0-2.064.922-2.064 2.06 0-1.138-.924-2.06-2.065-2.06-1.138 0-2.063.922-2.063 2.06 0-1.138-.926-2.06-2.063-2.06-1.141 0-2.065.922-2.065 2.06 0-1.138-.923-2.06-2.063-2.06s-2.068.923-2.068 2.061c0-1.138-.923-2.06-2.063-2.06-1.139 0-2.063.922-2.063 2.06 0-1.138-.926-2.06-2.064-2.06-1.141 0-2.064.922-2.064 2.06 0 1.139.924 2.06 2.064 2.06-1.141 0-2.064.923-2.064 2.062 0 1.138.924 2.06 2.064 2.06-1.141 0-2.064.923-2.064 2.062 0 1.137.924 2.06 2.064 2.06-1.141 0-2.064.924-2.064 2.062 0 1.137.924 2.06 2.064 2.06 1.139 0 2.064-.923 2.064-2.06 0 1.137.924 2.06 2.063 2.06 1.141 0 2.063-.923 2.063-2.06 0 1.137.925 2.06 2.065 2.06s2.063-.923 2.063-2.06c0 1.137.925 2.06 2.065 2.06 1.138 0 2.063-.923 2.063-2.06 0 1.137.925 2.06 2.063 2.06 1.142 0 2.065-.923 2.065-2.06 0 1.137.923 2.06 2.064 2.06 1.141 0 2.063-.923 2.063-2.06 0-1.138-.923-2.062-2.063-2.062 1.141 0 2.063-.923 2.063-2.06 0-1.139-.923-2.062-2.063-2.062 1.143-.001 2.066-.923 2.066-2.061"
         id="path224188" />
      <circle
         fill="#ff5760"
         cx="21.13"
         cy="43.47"
         r="2.064"
         id="circle224190" />
      <ellipse
         fill="#3e4347"
         cx="14.937"
         cy="20.531"
         rx="7.981"
         ry="7.966"
         id="ellipse224192" />
      <ellipse
         fill="#c94747"
         cx="14.938"
         cy="20.531"
         rx="6.386"
         ry="6.374"
         id="ellipse224194" />
      <path
         fill-rule="evenodd"
         fill="#dae3ea"
         d="m57.11 19.75c-.001-.411-.573-.566-.69-.93.063-.364.482-.512.646-.825.207-.399-.378-.697-.569-.956-.314-.424.284-.91.043-1.328-.209-.357-.799-.192-1.076-.469-.278-.277-.109-.867-.471-1.078-.356-.207-.79.23-1.167.128-.386-.103-.642-.896-1.114-.652-.341.178-.517.704-.958.656-.315-.034-.867-.394-1.103-.02-.203.323-.093.87-.499 1.049-.39.171-1.079.11-.943.729.096.432.303.757-.063 1.116-.282.278-.668.563-.317.959.191.215.697.482.454.814-.253.343-.873.638-.456 1.109.212.239.728.521.456.891-.192.26-.771.557-.566.954.125.243.729.55.647.862-.102.387-.894.644-.646 1.115.179.341.707.515.661.958-.031.316-.387.871-.014 1.104.325.204.873.094 1.052.501.172.392.111 1.081.731.948.435-.092.76-.3 1.12.069.279.286.564.673.963.318.332-.299.5-.637 1-.499.547.15.885.244 1.034-.411.117-.509.267-.659.776-.776.498-.112.624-.333.474-.82-.154-.501-.099-.704.282-1.06.481-.451.255-.713-.151-1.106-.721-.701.93-.975.309-1.675-.155-.177-.61-.446-.535-.731.099-.379.691-.524.69-.944"
         id="path224196" />
      <g
         fill="#839391"
         id="g224198">
        <path
           d="m50.31 16.728c.187-.368.018-.99.429-1.222.336-.192.885.17 1.129.067.363-.208.565-.749 1.051-.726.437.021.681.66.955.721.386.044.843-.272 1.201-.035.383.221.222.867.396 1.21-.284-.267-.259-.715-.56-.954-.203-.135-.803.328-1.141.222-.356-.092-.579-.668-.91-.668-.136 0-.556.579-.84.655-.421.086-.775-.243-1.18-.206-.241.151-.28.703-.53.936"
           id="path224200" />
        <path
           d="m50.31 20.728c.187-.368.018-.991.429-1.224.336-.189.873.154 1.129.069.362-.208.565-.75 1.051-.727.437.022.682.663.955.722.386.044.844-.272 1.201-.034.384.222.221.866.396 1.208-.284-.266-.259-.714-.56-.954-.203-.135-.803.33-1.141.222-.355-.091-.58-.667-.91-.667-.136 0-.556.58-.84.657-.422.084-.775-.244-1.18-.209-.241.151-.28.704-.53.937"
           id="path224202" />
        <path
           d="m50.31 18.729c.187-.368.018-.992.429-1.224.336-.19.885.17 1.129.067.363-.206.565-.748 1.051-.725.437.021.681.662.955.721.386.044.843-.272 1.201-.035.383.221.222.866.396 1.209-.284-.266-.259-.714-.56-.954-.203-.135-.803.33-1.141.222-.356-.091-.579-.667-.91-.667-.136 0-.556.581-.84.656-.422.085-.775-.245-1.18-.207-.241.15-.28.702-.53.937"
           id="path224204" />
      </g>
      <g
         fill="#fc97b2"
         id="g224206">
        <path
           d="m55.31 24.396c-.005.017-.008.024-.012.039.007-.021.012-.039.012-.039"
           id="path224208" />
        <path
           d="m55.29 24.436c-.004.011-.007.021-.011.035.003-.011.007-.024.011-.035"
           id="path224210" />
        <path
           d="m55.26 24.536c-.007.023-.006.019 0 0"
           id="path224212" />
        <path
           d="m51.567 24.719c-.912-1.061-.35-3.107 1.257-2.913 1.303.157 1.73 2.374.275 2.216-.562-.061-.976-.907-.334-1.19.609-.287.747.415.672.777.787-.581-.426-1.554-1.123-.99-.653.525-.425 1.512.258 1.88 1.945 1.05 2.96-2.465.771-3-1.967-.481-3.172 2.119-2.105 3.592 1.084 1.497 3.53 1.056 4.068-.692-.585.308-.885.971-1.713 1.096-.761.11-1.528-.195-2.026-.775"
           id="path224214" />
        <path
           d="m55.27 24.503c-.004.013-.007.024-.01.033.003-.009.007-.017.01-.033"
           id="path224216" />
        <path
           d="m55.28 24.471c-.004.01-.008.023-.011.032.004-.011.007-.022.011-.032"
           id="path224218" />
      </g>
      <g
         fill="#83bf4f"
         id="g224220">
        <path
           d="m45.38 17.97c-4.219-1.292-8.73-1.292-12.95 0-1.741.591-3.039-2.371-.943-3.079 4.834-1.48 10-1.48 14.836 0 2.096.708.798 3.67-.943 3.079"
           id="path224222" />
        <path
           d="m45.38 22.572c-4.219-1.292-8.73-1.292-12.95 0-1.741.591-3.039-2.371-.943-3.079 4.834-1.48 10-1.48 14.836 0 2.096.708.798 3.67-.943 3.079"
           id="path224224" />
        <path
           d="m45.38 27.17c-4.219-1.292-8.73-1.292-12.95 0-1.741.591-3.039-2.371-.943-3.079 4.834-1.48 10-1.48 14.836 0 2.096.708.798 3.67-.943 3.079"
           id="path224226" />
      </g>
      <path
         fill="#ff5760"
         d="m43.01 34.06c-1.514 0-2.752 1.236-2.752 2.747v13.323c0 1.511 1.238 2.749 2.752 2.749h12.11c1.514 0 2.752-1.238 2.752-2.749v-13.323c0-1.511-1.238-2.747-2.752-2.747h-12.11"
         id="path224228" />
      <path
         fill="#fbbf67"
         d="m54.844 37.12c0-1.063-1.257-1.801-1.926-1.922-.477-.088-1.635.096-1.918.258-.283-.162-1.447-.486-1.936-.488-.521 0-1.781.326-2.064.488-.283-.162-1.344-.338-1.789-.258-.669.121-1.926.859-1.926 1.922-1.064 0-1.928.861-1.928 1.924s.863 1.922 1.928 1.922c0 1.063 1.256 1.803 1.926 1.924.444.082 1.506-.096 1.789-.26.283.164 1.544.34 2.064.338.488 0 1.652-.174 1.936-.338.283.164 1.441.348 1.918.26.67-.123 1.926-.861 1.926-1.924 1.064 0 1.928-.859 1.928-1.922s-.864-1.924-1.928-1.924"
         id="path224230" />
      <g
         fill="#89664c"
         id="g224232">
        <path
           d="m51.564 36.547h1v5h-1z"
           id="path224234" />
        <path
           d="m45.564 36.547h1v5h-1z"
           id="path224236" />
        <path
           d="m48.564 36.547h1v5h-1z"
           id="path224238" />
      </g>
      <path
         fill="#fbbf67"
         d="m54.844 46.12c0-1.063-1.257-1.801-1.926-1.922-.477-.088-1.635.096-1.918.258-.283-.162-1.447-.486-1.936-.488-.521 0-1.781.326-2.064.488-.283-.162-1.344-.338-1.789-.258-.669.121-1.926.859-1.926 1.922-1.064 0-1.928.861-1.928 1.924s.863 1.922 1.928 1.922c0 1.063 1.256 1.803 1.926 1.924.444.082 1.506-.096 1.789-.26.283.164 1.544.34 2.064.338.488 0 1.652-.174 1.936-.338.283.164 1.441.348 1.918.26.67-.123 1.926-.861 1.926-1.924 1.064 0 1.928-.859 1.928-1.922s-.864-1.924-1.928-1.924"
         id="path224240" />
      <g
         fill="#89664c"
         id="g224242">
        <path
           d="m51.564 45.547h1v5h-1z"
           id="path224244" />
        <path
           d="m45.564 45.547h1v5h-1z"
           id="path224246" />
        <path
           d="m48.564 45.547h1v5h-1z"
           id="path224248" />
      </g>
    </symbol>
    <symbol
       viewBox="0 0 64 64"
       id="emoji-1f4f1">
      <title
         id="title249660">1f4f1</title>
      <path
         fill="#5c6d6d"
         d="M50,4.129C50,2.064,47.867,0,45.732,0H18.267C16.134,0,14,2.064,14.001,4.129L14,59.871     C14,61.936,16.134,64,18.267,64h27.466C47.867,64,50,61.936,50,59.871V4.129z"
         id="path249662" />
      <path
         fill="#212528"
         d="M49,59c0,2-2,4-4,4H19c-2,0-4-2-4-4l0.001-54C15,3,17,1,19,1h26c2,0,4,2,4,4V59z"
         id="path249664" />
      <g
         fill="#94989b"
         id="g249666">
        <circle
           cx="43.5"
           cy="4.499"
           r="1"
           id="circle249668" />
        <path
           d="m35 4.533c0 .277-.133.501-.299.501h-5.402c-.164 0-.299-.223-.299-.501 0-.275.135-.499.299-.499h5.402c.166 0 .299.224.299.499"
           id="path249670" />
      </g>
      <path
         fill="#3e4347"
         d="m17 8h30v48h-30z"
         id="path249672" />
      <path
         fill="#94989b"
         d="m35.75 60.25c0 .414-.336.75-.75.75h-6c-.414 0-.75-.336-.75-.75v-1.5c0-.414.336-.75.75-.75h6c.414 0 .75.336.75.75v1.5"
         id="path249674" />
      <path
         fill="#42ade2"
         d="m24 14.667c0 .46-.373.833-.834.833h-3.333c-.46 0-.833-.373-.833-.833v-3.333c0-.461.373-.834.833-.834h3.333c.461 0 .834.373.834.834v3.333"
         id="path249676" />
      <path
         fill="#c7e755"
         d="m31 14.667c0 .46-.373.833-.834.833h-3.333c-.46 0-.833-.373-.833-.833v-3.333c0-.461.373-.834.833-.834h3.333c.461 0 .834.373.834.834v3.333"
         id="path249678" />
      <path
         fill="#f2b200"
         d="m38 14.667c0 .46-.373.833-.834.833h-3.333c-.46 0-.833-.373-.833-.833v-3.333c0-.461.373-.834.833-.834h3.333c.461 0 .834.373.834.834v3.333"
         id="path249680" />
      <path
         fill="#42ade2"
         d="m45 14.667c0 .46-.373.833-.834.833h-3.333c-.46 0-.833-.373-.833-.833v-3.333c0-.461.373-.834.833-.834h3.333c.461 0 .834.373.834.834v3.333"
         id="path249682" />
      <path
         fill="#c7e755"
         d="m24 53.17c0 .46-.373.833-.834.833h-3.333c-.46 0-.833-.373-.833-.833v-3.333c0-.461.373-.834.833-.834h3.333c.461 0 .834.373.834.834v3.333"
         id="path249684" />
      <path
         fill="#ff435e"
         d="m31 53.17c0 .46-.373.833-.834.833h-3.333c-.46 0-.833-.373-.833-.833v-3.333c0-.461.373-.834.833-.834h3.333c.461 0 .834.373.834.834v3.333"
         id="path249686" />
      <path
         fill="#42ade2"
         d="m38 53.17c0 .46-.373.833-.834.833h-3.333c-.46 0-.833-.373-.833-.833v-3.333c0-.461.373-.834.833-.834h3.333c.461 0 .834.373.834.834v3.333"
         id="path249688" />
      <path
         fill="#c28fef"
         d="m45 53.17c0 .46-.373.833-.834.833h-3.333c-.46 0-.833-.373-.833-.833v-3.333c0-.461.373-.834.833-.834h3.333c.461 0 .834.373.834.834v3.333"
         id="path249690" />
      <path
         fill="#c7e755"
         d="m24 33.917c0 .46-.373.833-.834.833h-3.333c-.46 0-.833-.373-.833-.833v-3.333c0-.461.373-.834.833-.834h3.333c.461 0 .834.373.834.834v3.333"
         id="path249692" />
      <path
         fill="#c28fef"
         d="m31 33.917c0 .46-.373.833-.834.833h-3.333c-.46 0-.833-.373-.833-.833v-3.333c0-.461.373-.834.833-.834h3.333c.461 0 .834.373.834.834v3.333"
         id="path249694" />
      <path
         fill="#42ade2"
         d="m38 33.917c0 .46-.373.833-.834.833h-3.333c-.46 0-.833-.373-.833-.833v-3.333c0-.461.373-.834.833-.834h3.333c.461 0 .834.373.834.834v3.333"
         id="path249696" />
      <path
         fill="#ff435e"
         d="m24 27.5c0 .461-.373.834-.834.834h-3.333c-.46 0-.833-.373-.833-.834v-3.333c0-.46.373-.833.833-.833h3.333c.461 0 .834.373.834.833v3.333"
         id="path249698" />
      <path
         fill="#f2b200"
         d="m31 27.5c0 .461-.373.834-.834.834h-3.333c-.46 0-.833-.373-.833-.834v-3.333c0-.46.373-.833.833-.833h3.333c.461 0 .834.373.834.833v3.333"
         id="path249700" />
      <path
         fill="#c7e755"
         d="m38 27.5c0 .461-.373.834-.834.834h-3.333c-.46 0-.833-.373-.833-.834v-3.333c0-.46.373-.833.833-.833h3.333c.461 0 .834.373.834.833v3.333"
         id="path249702" />
      <path
         fill="#f2b200"
         d="m45 27.5c0 .461-.373.834-.834.834h-3.333c-.46 0-.833-.373-.833-.834v-3.333c0-.46.373-.833.833-.833h3.333c.461 0 .834.373.834.833v3.333"
         id="path249704" />
      <path
         fill="#c28fef"
         d="m24 21.08c0 .461-.373.834-.834.834h-3.333c-.46 0-.833-.373-.833-.834v-3.333c0-.46.373-.833.833-.833h3.333c.461 0 .834.373.834.833v3.333"
         id="path249706" />
      <path
         fill="#42ade2"
         d="m31 21.08c0 .461-.373.834-.834.834h-3.333c-.46 0-.833-.373-.833-.834v-3.333c0-.46.373-.833.833-.833h3.333c.461 0 .834.373.834.833v3.333"
         id="path249708" />
      <path
         fill="#ff435e"
         d="m38 21.08c0 .461-.373.834-.834.834h-3.333c-.46 0-.833-.373-.833-.834v-3.333c0-.46.373-.833.833-.833h3.333c.461 0 .834.373.834.833v3.333"
         id="path249710" />
      <path
         fill="#c28fef"
         d="m45 21.08c0 .461-.373.834-.834.834h-3.333c-.46 0-.833-.373-.833-.834v-3.333c0-.46.373-.833.833-.833h3.333c.461 0 .834.373.834.833v3.333"
         id="path249712" />
    </symbol>
    <symbol
       viewBox="0 0 64 64"
       id="emoji-1f3d1">
      <title
         id="title229996">1f3d1</title>
      <path
         fill="#ff8736"
         d="m49.542 37.09c-6.881 0-12.458 5.574-12.458 12.459 0 6.877 5.577 12.455 12.458 12.455s12.458-5.578 12.458-12.455c0-6.885-5.577-12.459-12.458-12.459"
         id="path229998" />
      <g
         fill="#3e4347"
         id="g230000">
        <path
           d="m55.29 5.252l-5 11.26 3.342-12.5 2.178-2.01h-2.755l-34.498 39.766c-1.525 1.824-4.29 2.02-6.168.439s-2.164-4.34-.638-6.166c1.522-1.816 1.236-4.578-.645-6.156-1.88-1.58-4.642-1.383-6.165.434-4.571 5.457-3.709 13.75 1.921 18.486 5.536 4.66 13.642 4.156 18.255-1.049l34.21-42.43-1.505-2.15-2.531 2.08"
           id="path230002" />
        <path
           d="M59.32 2 60.56 3.779 59.832 4.688 62 2z"
           id="path230004" />
      </g>
      <path
         opacity=".5"
         fill="#c7e755"
         d="m59.32 5.322l.512-.634-.512.634"
         id="path230006" />
      <path
         fill="#3e4347"
         d="m59.32 2h-.08l-1.423 1.172 1.503 2.15.512-.634.728-.909z"
         id="path230008" />
      <g
         fill="#c7e755"
         id="g230010">
        <path
           opacity=".5"
           d="m59.32 2h-.08l-1.423 1.172 1.503 2.15.512-.634.728-.909z"
           id="path230012" />
        <path
           d="m57.768 2h-1.964l-2.178 2.01-3.346 12.502 5.01-11.26 2.527-2.08-.517-.746z"
           id="path230014" />
        <path
           d="m57.3 2.426l.517.746 1.423-1.172h-1.472z"
           id="path230016" />
        <path
           d="m46.02 12.1l-25.06 29.93.526.855 25.06-29.93z"
           id="path230018" />
        <path
           d="m47.07 13.811l-25.05 29.929.519.858 25.06-29.932z"
           id="path230020" />
        <path
           d="m23.07 45.45l.52.86 25.06-29.929-.517-.858z"
           id="path230022" />
        <path
           opacity=".5"
           d="m54.45 5l2.384 3.406 1.246-1.539-2.206-3.154z"
           id="path230024" />
        <path
           opacity=".5"
           d="m52.865 9.381l1.485 2.113 1.24-1.543-1.933-2.763z"
           id="path230026" />
        <path
           opacity=".5"
           d="m51.28 13.756l.577.824 1.243-1.54-1.03-1.474z"
           id="path230028" />
        <path
           d="m11.128 43.688l-5.359.472 5.83 4.9z"
           id="path230030" />
      </g>
    </symbol>
    <symbol
       id="feed">
      <title
         id="title210146">feed</title>
      <path
         d="M2,6v2c3.309,0,6,2.691,6,6h2C10,9.582,6.418,6,2,6z M2,2v2c5.514,0,10,4.486,10,10h2 C14,7.373,8.627,2,2,2z M3.5,11C2.671,11,2,11.672,2,12.5S2.671,14,3.5,14S5,13.328,5,12.5S4.329,11,3.5,11z"
         id="path210148" />
    </symbol>
  </defs>
  <sodipodi:namedview
     id="base"
     pagecolor="#ffffff"
     bordercolor="#666666"
     borderopacity="1.0"
     inkscape:pageopacity="0.0"
     inkscape:pageshadow="2"
     inkscape:zoom="0.7071068"
     inkscape:cx="72.919714"
     inkscape:cy="1.7629269"
     inkscape:document-units="px"
     inkscape:current-layer="layer1"
     showgrid="false"
     units="px"
     inkscape:window-width="1920"
     inkscape:window-height="1050"
     inkscape:window-x="0"
     inkscape:window-y="0"
     inkscape:window-maximized="1" />
  <metadata
     id="metadata196104">
    <rdf:RDF>
      <cc:Work
         rdf:about="">
        <dc:format>image/svg+xml</dc:format>
        <dc:type
           rdf:resource="http://purl.org/dc/dcmitype/StillImage" />
        <dc:title></dc:title>
      </cc:Work>
    </rdf:RDF>
  </metadata>
  <g
     inkscape:label="Layer 1"
     inkscape:groupmode="layer"
     id="layer1"
     transform="translate(0,-842.36213)">
    <use
       id="use120374"
       xlink:href="#rss"
       x="0"
       y="0"
       width="100%"
       height="100%"
       transform="matrix(2.0935986,0,0,2.0699659,347.85564,1613.6645)"
       style="fill:#ff2a2a" />
    <use
       id="use306802"
       xlink:href="#emoji-1f4f1"
       transform="matrix(0.94920635,0,0,0.95238095,302.6598,850.21928)"
       x="0"
       y="0"
       width="100%"
       height="100%" />
    <use
       id="use306986"
       xlink:href="#emoji-1f371"
       transform="matrix(1.3149206,0,0,1.2742857,-315.30985,814.06213)"
       x="0"
       y="0"
       width="100%"
       height="100%" />
    <use
       id="use308326"
       style="fill:#dd514c;fill-opacity:1;stroke:none"
       xlink:href="#feed"
       transform="matrix(12.5,0,0,12.5,365.6869,847.29968)"
       x="0"
       y="0"
       width="100%"
       height="100%" />
  </g>
</svg>
