<?xml version="1.0" encoding="UTF-8" standalone="no"?>
<!-- Created with Inkscape (http://www.inkscape.org/) -->

<svg
   xmlns:dc="http://purl.org/dc/elements/1.1/"
   xmlns:cc="http://creativecommons.org/ns#"
   xmlns:rdf="http://www.w3.org/1999/02/22-rdf-syntax-ns#"
   xmlns:svg="http://www.w3.org/2000/svg"
   xmlns="http://www.w3.org/2000/svg"
   xmlns:xlink="http://www.w3.org/1999/xlink"
   xmlns:sodipodi="http://sodipodi.sourceforge.net/DTD/sodipodi-0.dtd"
   xmlns:inkscape="http://www.inkscape.org/namespaces/inkscape"
   width="744"
   height="210"
   viewBox="0 0 744 210"
   id="svg85243"
   version="1.1"
   inkscape:version="0.91 r13725"
   sodipodi:docname="meals.svg">
  <defs
     id="defs85245">
    <symbol
       viewBox="0 0 64 64"
       id="emoji-1f354">
      <title
         id="title111520">1f354</title>
      <path
         d="m61.999 44.46c0 12-10.864 17.543-29.814 17.543-18.951 0-29.816-5.539-29.816-17.543 0-17.545 59.63-17.545 59.63 0"
         id="path111522"
         fill="#e7a74f" />
      <path
         d="m61.84 36.21c0 12.01-10.807 17.545-29.654 17.545-18.849 0-29.656-5.539-29.656-17.545 0-17.544 59.31-17.544 59.31 0"
         id="path111524"
         fill="#ba8443" />
      <path
         d="m2.369 36.52c0-4.964 5.897-11.94 29.816-11.94s29.814 6.976 29.814 11.94c0 9.07-8.38 15.705-29.814 15.705-21.435 0-29.816-6.633-29.816-15.705"
         id="path111526"
         fill="#826046" />
      <path
         d="m3.03 31.29c0-4.965 5.766-11.94 29.16-11.94 23.393 0 29.16 6.976 29.16 11.94 0 9.07-8.195 15.706-29.16 15.706s-29.16-6.635-29.16-15.706"
         id="path111528"
         fill="#68472c" />
      <path
         d="m3.153 24.841c1.448-3.02 5.106-3.195 17.15 1.946 12.04 5.141 14.322 7.847 12.875 10.871-2.647 5.531-9.679 9.6-20.471 4.992s-12.203-12.278-9.554-17.809"
         id="path111530"
         fill="#ef4d3c" />
      <path
         d="m4.173 21.391c1.448-3.02 5.106-3.196 17.15 1.946 12.04 5.141 14.322 7.847 12.874 10.871-2.648 5.53-9.678 9.601-20.471 4.992-10.792-4.607-12.202-12.279-9.553-17.809"
         id="path111532"
         fill="#d33b23" />
      <path
         d="m29.25 34.523c-.793-3.233 2-5.466 14.879-8.284 12.876-2.818 16.428-1.975 17.221 1.259 1.452 5.912-1.519 13.175-13.06 15.701-11.538 2.526-17.59-2.763-19.04-8.676"
         id="path111534"
         fill="#ef4d3c" />
      <path
         d="m28 31.26c-.794-3.233 2-5.467 14.88-8.284 12.873-2.818 16.426-1.975 17.22 1.259 1.451 5.912-1.519 13.175-13.06 15.701-11.538 2.524-17.591-2.764-19.04-8.676"
         id="path111536"
         fill="#d33b23" />
      <path
         d="m9.678 30.924l20.07 19.19 19.512-19.19z"
         id="path111538"
         fill="#ffe62e" />
      <path
         d="m60.729 25.869c0 0 .856 3.393-.019 4.37-.779.871-3.343-.073-4.4.703-.952.698-.716 3.389-1.867 3.997-1.056.556-3.208-1.116-4.412-.646-1.12.438-1.512 3.118-2.745 3.475-1.164.335-2.959-1.708-4.21-1.452-1.193.243-2.02 2.827-3.277 2.992-1.213.158-2.691-2.121-3.957-2.041-1.224.078-2.393 2.529-3.657 2.529-1.263 0-2.432-2.451-3.656-2.529-1.265-.08-2.745 2.2-3.957 2.041-1.261-.165-2.084-2.749-3.277-2.992-1.251-.256-3.049 1.787-4.213 1.451-1.233-.355-1.626-3.036-2.746-3.475-1.204-.471-3.356 1.201-4.412.645-1.153-.608-.916-3.3-1.868-3.998-1.06-.776-3.622.167-4.402-.704-.874-.977-.015-4.368-.015-4.368l57.09.002"
         id="path111540"
         fill="#8cc63e" />
      <path
         d="m61.999 23.445c0 6.481-13.349 9.723-29.814 9.723-16.466 0-29.816-3.242-29.816-9.723 0-11.843 13.349-21.445 29.816-21.445 16.465 0 29.814 9.602 29.814 21.445"
         id="path111542"
         fill="#e7a74f" />
      <g
         id="g111544"
         fill="#ffc17a">
        <path
           d="m16.261 14.449l-1.514 1.5-1.514-1.5 1.514-1.5 1.514 1.5"
           id="path111546" />
        <path
           d="m23.725 11.984l-1.515 1.5-1.513-1.5 1.513-1.5 1.515 1.5"
           id="path111548" />
        <path
           d="m27.96 18.833l-1.514 1.5-1.513-1.5 1.513-1.5 1.514 1.5"
           id="path111550" />
        <path
           d="m33.19 13.449l-1 1-1.01-1 1.01-1 1 1"
           id="path111552" />
        <path
           d="m51.949 17.333l-1.01 1-1.01-1 1.01-1 1.01 1"
           id="path111554" />
        <path
           d="m58.08 18.333l-1.01 1-1.01-1 1.01-1 1.01 1"
           id="path111556" />
        <path
           d="m46.42 10.984l-1.01 1-1.01-1 1.01-1 1.01 1"
           id="path111558" />
        <path
           d="m15.893 9.734l-1.01 1-1.01-1 1.01-1 1.01 1"
           id="path111560" />
        <path
           d="m10.508 14.449l-1.01 1-1.01-1 1.01-1 1.01 1"
           id="path111562" />
        <path
           d="m16.766 21.05l-1.01 1-1.01-1 1.01-1 1.01 1"
           id="path111564" />
        <path
           d="m28.465 5.734l-1.01 1-1.01-1 1.01-1 1.01 1"
           id="path111566" />
        <path
           d="m37.989 4.734l-1.01 1-1.01-1 1.01-1 1.01 1"
           id="path111568" />
        <path
           d="m22.21 6.734l-1.01 1-1.01-1 1.01-1 1.01 1"
           id="path111570" />
        <path
           d="m50.874 9.109l-1.01 1-1.01-1 1.01-1 1.01 1"
           id="path111572" />
        <path
           d="m40.01 21.673l-1.516 1.497-1.514-1.497 1.514-1.503 1.516 1.503"
           id="path111574" />
        <path
           d="m37.637 13.984l-1.517 1.5-1.511-1.5 1.511-1.5 1.517 1.5"
           id="path111576" />
        <path
           d="m43.22 8.234l-1.519 1.5-1.511-1.5 1.511-1.5 1.519 1.5"
           id="path111578" />
        <path
           d="m47.576 14.652l-1.516 1.498-1.511-1.498 1.511-1.5 1.516 1.5"
           id="path111580" />
        <path
           d="m53.968 12.484l-1.518 1.5-1.51-1.5 1.51-1.5 1.518 1.5"
           id="path111582" />
        <path
           d="m49.09 21.268l-1.513 1.5-1.517-1.5 1.517-1.5 1.513 1.5"
           id="path111584" />
        <path
           d="m12.526 18.673l-1.516 1.497-1.511-1.497 1.511-1.503 1.516 1.503"
           id="path111586" />
      </g>
    </symbol>
    <symbol
       viewBox="0 0 64 64"
       id="emoji-1f355">
      <title
         id="title111589">1f355</title>
      <path
         d="M62.252,47.064C62.169,22.736,41.517,2.083,17.089,2.004L2.255,62L62.252,47.064z"
         id="path111591"
         fill="#f6da77" />
      <path
         d="m54.5 48.994l2.053-.354c-.974-19.04-14.589-38.929-41.04-40.918l-.341 2.028c20.35 2.538 36.782 18.967 39.32 39.24"
         id="path111593"
         fill="#860d16" />
      <path
         d="m56.52 48.641l5.732-1.432c.001-24.439-20.77-45.21-45.31-45.21l-1.433 5.72c23.439 2.219 38.782 17.559 41.01 40.921"
         id="path111595"
         fill="#c98e52" />
      <g
         id="g111597"
         fill="#83bf4f">
        <path
           d="m13.462 41.652c-1.661 0-3.219-.643-4.389-1.811-.481-.479-.482-1.26-.001-1.74.465-.467 1.279-.469 1.743 0 1.41 1.408 3.882 1.408 5.296 0 .705-.705 1.092-1.643 1.092-2.641 0-1-.388-1.939-1.093-2.643-.48-.48-.48-1.262-.001-1.74.463-.467 1.28-.465 1.745 0 1.169 1.168 1.815 2.725 1.816 4.381-.001 1.656-.646 3.213-1.815 4.381-1.172 1.171-2.732 1.813-4.393 1.813"
           id="path111599" />
        <path
           d="m38.569 21.899c.036.164.034.33-.004.493-.064.291-.242.537-.496.694-.251.158-.553.208-.843.142-.797-.185-1.618-.05-2.317.385-.694.433-1.18 1.109-1.363 1.904-.375 1.602.707 3.305 2.294 3.674.579.137.968.76.837 1.334-.139.602-.74.975-1.341.838-1.976-.459-3.538-2.035-3.979-4.02-.174-.773-.166-1.559.014-2.333.318-1.375 1.157-2.546 2.36-3.292 1.201-.752 2.626-.988 4-.668.414.1.746.431.836.845"
           id="path111601" />
        <path
           d="m43.918 50.881c-.155.029-.313.023-.465-.018-.274-.074-.503-.248-.644-.494-.139-.242-.178-.527-.104-.801.203-.744.1-1.523-.287-2.195-.385-.674-1.01-1.154-1.76-1.354-1.502-.408-3.154.553-3.557 2.037-.148.545-.751.891-1.295.746-.563-.15-.896-.732-.747-1.293.505-1.85 2.048-3.27 3.941-3.619.738-.137 1.483-.104 2.21.092 1.293.348 2.372 1.178 3.042 2.338.667 1.162.843 2.512.494 3.799-.105.391-.431.69-.828.762"
           id="path111603" />
      </g>
      <g
         id="g111605"
         fill="#b21725">
        <path
           d="m37.12 36.2c1.391 4.094-.847 8.531-4.993 9.906-4.159 1.375-8.654-.828-10.05-4.93-1.396-4.092.843-8.531 4.995-9.908 4.156-1.373 8.648.835 10.05 4.932"
           id="path111607" />
        <path
           d="m49.562 36.959c.832 2.461-.509 5.127-3 5.955-2.502.824-5.204-.5-6.04-2.961-.834-2.463.511-5.129 3.01-5.957 2.49-.82 5.195.504 6.03 2.963"
           id="path111609" />
        <path
           d="m29.02 19.01c1.138 3.348-.694 6.979-4.085 8.104-3.4 1.127-7.08-.676-8.223-4.03-1.135-3.347.697-6.979 4.088-8.101 3.398-1.123 7.07.682 8.22 4.03"
           id="path111611" />
        <path
           d="m34.36 54.01l-9.69 2.414c-.865-2.551.895-5.699 3.531-6.367 3.196-.809 5.29 1.404 6.159 3.953"
           id="path111613" />
        <path
           d="m19.596 47.03c1.169 3.447-.715 7.182-4.207 8.342-3.508 1.16-7.292-.695-8.465-4.154-1.17-3.445.713-7.18 4.204-8.342 3.498-1.152 7.285.707 8.468 4.154"
           id="path111615" />
      </g>
      <path
         d="m15.515 7.722c5.298.089 10.634 1.081 15.642 3.05 5.01 1.948 9.661 4.937 13.514 8.751 3.833 3.834 6.841 8.47 8.805 13.479 1.984 5 2.986 10.34 3.075 15.639-.919-5.217-2.329-10.303-4.511-15.02-2.184-4.71-5.111-9.05-8.779-12.677-3.639-3.654-7.994-6.566-12.711-8.736-4.729-2.17-9.817-3.568-15.03-4.482"
         id="path111617"
         fill="#e0a763" />
      <g
         id="g111619"
         fill="#ffab41">
        <path
           transform="matrix(.7071-.7071.7071.7071-3.995 17.255)"
           d="m17.417 12.04h2.828v2.828h-2.828z"
           id="path111621" />
        <path
           transform="matrix(.7071-.7071.7071.7071-4.151 28.02)"
           d="m30.339 17.608h2.828v2.828h-2.828z"
           id="path111623" />
        <path
           transform="matrix(.7071-.7071.7071.7071-14.316 18.317)"
           d="m13.539 25.02h2.828v2.828h-2.828z"
           id="path111625" />
        <path
           transform="matrix(.7071-.7071.7071.7071-16.314 24.782)"
           d="m20.343 30.67h2.828v2.828h-2.828z"
           id="path111627" />
        <path
           transform="matrix(.7071-.7071.7071.7071-11.316 37.412)"
           d="m38.09 30.951h2.828v2.828h-2.828z"
           id="path111629" />
        <path
           transform="matrix(.7071-.7071.7071.7071-17.938 49.725)"
           d="m49.639 45.1h2.828v2.828h-2.828z"
           id="path111631" />
        <path
           transform="matrix(.7071-.7071.7071.7071-25.21 28.389)"
           d="m20.248 43.22h2.828v2.828h-2.828z"
           id="path111633" />
        <path
           transform="matrix(.7071-.7071.7071.7071-29.948 31.468)"
           d="m21.597 50.47h2.828v2.828h-2.828z"
           id="path111635" />
        <path
           transform="matrix(.7071-.7071.7071.7071-39.29 21.543)"
           d="m4.946 56.785h2.828v2.828h-2.828z"
           id="path111637" />
        <path
           transform="matrix(.7071-.7071.7071.7071-7.738 15.985)"
           d="m14.366 16.272h2.121v2.121h-2.121z"
           id="path111639" />
        <path
           transform="matrix(.7071-.7071.7071.7071-11.49 28.04)"
           d="m27.04 26.826h2.121v2.121h-2.121z"
           id="path111641" />
        <path
           transform="matrix(.7071-.7071.7071.7071-7.583 37.572)"
           d="m40.501 26.879h2.121v2.121h-2.121z"
           id="path111643" />
        <path
           transform="matrix(.7071-.7071.7071.7071-21.21 21.17)"
           d="m13.892 35.13h2.121v2.121h-2.121z"
           id="path111645" />
        <path
           transform="matrix(.7071-.7071.7071.7071-27.15 18.624)"
           d="m7.848 41.02h2.121v2.121h-2.121z"
           id="path111647" />
        <path
           transform="matrix(.7071-.7071.7071.7071-36.618 20.616)"
           d="m5.516 53.45h2.121v2.121h-2.121z"
           id="path111649" />
        <path
           transform="matrix(.7072-.707.707.7072-33.386 29.893)"
           d="m18.339 54.2h2.122v2.122h-2.122z"
           id="path111651" />
        <path
           transform="matrix(.7071-.7071.7071.7071-24.729 36.962)"
           d="m31.19 47.27h2.121v2.121h-2.121z"
           id="path111653" />
        <path
           transform="matrix(.7071-.7071.7071.7071-24.687 42.2)"
           d="m37.534 49.839h2.121v2.121h-2.121z"
           id="path111655" />
        <path
           transform="matrix(.7071-.7071.7071.7071-18.19 46.37)"
           d="m45.821 44.09h2.121v2.121h-2.121z"
           id="path111657" />
      </g>
    </symbol>
  </defs>
  <sodipodi:namedview
     id="base"
     pagecolor="#ffffff"
     bordercolor="#666666"
     borderopacity="1.0"
     inkscape:pageopacity="0.0"
     inkscape:pageshadow="2"
     inkscape:zoom="0.98994949"
     inkscape:cx="162.30693"
     inkscape:cy="-25.133437"
     inkscape:document-units="px"
     inkscape:current-layer="layer1"
     showgrid="false"
     width="210mm"
     units="px"
     inkscape:window-width="1920"
     inkscape:window-height="1050"
     inkscape:window-x="0"
     inkscape:window-y="0"
     inkscape:window-maximized="1"
     fit-margin-right="0" />
  <metadata
     id="metadata85248">
    <rdf:RDF>
      <cc:Work
         rdf:about="">
        <dc:format>image/svg+xml</dc:format>
        <dc:type
           rdf:resource="http://purl.org/dc/dcmitype/StillImage" />
        <dc:title></dc:title>
      </cc:Work>
    </rdf:RDF>
  </metadata>
  <g
     inkscape:label="Layer 1"
     inkscape:groupmode="layer"
     id="layer1"
     transform="translate(0,-842.36216)">
    <use
       id="use195846"
       xlink:href="#emoji-1f354"
       transform="matrix(1.0158785,0,0,1.0158222,-228.40653,835.82283)"
       x="0"
       y="0"
       width="100%"
       height="100%"
       style="fill:#d3514c;fill-opacity:1" />
    <use
       id="use195968"
       xlink:href="#emoji-1f355"
       transform="matrix(1.0159238,0,0,1.0158561,229.31252,837.97178)"
       x="0"
       y="0"
       width="100%"
       height="100%" />
    <rect
       style="fill:#d3514c;fill-opacity:1"
       id="rect196067"
       width="155.90385"
       height="25"
       x="304.24551"
       y="965.69177"
       transform="matrix(0.99989652,0.01438584,0,1,0,0)" />
    <rect
       style="fill:#d3514c;fill-opacity:1"
       id="rect196067-2"
       width="155.88771"
       height="25"
       x="303.03302"
       y="924.59351" />
    <rect
       style="fill:#d3514c;fill-opacity:1"
       id="rect196067-26"
       width="170.08368"
       height="20.623503"
       x="440.45969"
       y="-956.95728"
       transform="matrix(-0.69889309,0.71522615,-0.79201172,-0.61050589,0,0)"
       inkscape:transform-center-x="7.4055409"
       inkscape:transform-center-y="16.768845" />
  </g>
</svg>
